solid ASCII
  facet normal 5.773503e-01 -5.773503e-01 -5.773503e-01
    outer loop
      vertex   5.000000e+01 -5.000000e+01 5.000000e+01
      vertex   1.000000e+02 -5.000000e+01 1.000000e+02
      vertex   5.000000e+01 -1.000000e+02 1.000000e+02
    endloop
  endfacet
  facet normal 7.071068e-01 -7.071068e-01 0.000000e+00
    outer loop
      vertex   1.000000e+02 -5.000000e+01 1.000000e+02
      vertex   1.000000e+02 -5.000000e+01 2.000000e+02
      vertex   5.000000e+01 -1.000000e+02 1.000000e+02
    endloop
  endfacet
  facet normal 7.071068e-01 -7.071068e-01 0.000000e+00
    outer loop
      vertex   5.000000e+01 -1.000000e+02 1.000000e+02
      vertex   1.000000e+02 -5.000000e+01 2.000000e+02
      vertex   5.000000e+01 -1.000000e+02 2.000000e+02
    endloop
  endfacet
  facet normal 5.773503e-01 -5.773503e-01 5.773503e-01
    outer loop
      vertex   5.000000e+01 -1.000000e+02 2.000000e+02
      vertex   1.000000e+02 -5.000000e+01 2.000000e+02
      vertex   5.000000e+01 -5.000000e+01 2.500000e+02
    endloop
  endfacet
  facet normal -5.773503e-01 5.773503e-01 -5.773503e-01
    outer loop
      vertex   -5.000000e+01 5.000000e+01 5.000000e+01
      vertex   -1.000000e+02 5.000000e+01 1.000000e+02
      vertex   -5.000000e+01 1.000000e+02 1.000000e+02
    endloop
  endfacet
  facet normal -7.071068e-01 7.071068e-01 0.000000e+00
    outer loop
      vertex   -1.000000e+02 5.000000e+01 1.000000e+02
      vertex   -1.000000e+02 5.000000e+01 2.000000e+02
      vertex   -5.000000e+01 1.000000e+02 1.000000e+02
    endloop
  endfacet
  facet normal -7.071068e-01 7.071068e-01 0.000000e+00
    outer loop
      vertex   -5.000000e+01 1.000000e+02 1.000000e+02
      vertex   -1.000000e+02 5.000000e+01 2.000000e+02
      vertex   -5.000000e+01 1.000000e+02 2.000000e+02
    endloop
  endfacet
  facet normal -5.773503e-01 5.773503e-01 5.773503e-01
    outer loop
      vertex   -5.000000e+01 1.000000e+02 2.000000e+02
      vertex   -1.000000e+02 5.000000e+01 2.000000e+02
      vertex   -5.000000e+01 5.000000e+01 2.500000e+02
    endloop
  endfacet
  facet normal -5.773503e-01 -5.773503e-01 -5.773503e-01
    outer loop
      vertex   -5.000000e+01 -5.000000e+01 5.000000e+01
      vertex   -5.000000e+01 -1.000000e+02 1.000000e+02
      vertex   -1.000000e+02 -5.000000e+01 1.000000e+02
    endloop
  endfacet
  facet normal -7.071068e-01 -7.071068e-01 0.000000e+00
    outer loop
      vertex   -5.000000e+01 -1.000000e+02 1.000000e+02
      vertex   -5.000000e+01 -1.000000e+02 2.000000e+02
      vertex   -1.000000e+02 -5.000000e+01 1.000000e+02
    endloop
  endfacet
  facet normal -7.071068e-01 -7.071068e-01 0.000000e+00
    outer loop
      vertex   -1.000000e+02 -5.000000e+01 1.000000e+02
      vertex   -5.000000e+01 -1.000000e+02 2.000000e+02
      vertex   -1.000000e+02 -5.000000e+01 2.000000e+02
    endloop
  endfacet
  facet normal -1.421085e-16 -1.000000e+00 -0.000000e+00
    outer loop
      vertex   -5.000000e+01 -1.000000e+02 2.000000e+02
      vertex   -5.000000e+01 -1.000000e+02 1.000000e+02
      vertex   5.000000e+01 -1.000000e+02 2.000000e+02
    endloop
  endfacet
  facet normal -1.421085e-16 -1.000000e+00 -0.000000e+00
    outer loop
      vertex   5.000000e+01 -1.000000e+02 2.000000e+02
      vertex   -5.000000e+01 -1.000000e+02 1.000000e+02
      vertex   5.000000e+01 -1.000000e+02 1.000000e+02
    endloop
  endfacet
  facet normal -1.004859e-16 -7.071068e-01 -7.071068e-01
    outer loop
      vertex   -5.000000e+01 -1.000000e+02 1.000000e+02
      vertex   -5.000000e+01 -5.000000e+01 5.000000e+01
      vertex   5.000000e+01 -1.000000e+02 1.000000e+02
    endloop
  endfacet
  facet normal 0.000000e+00 -7.071068e-01 -7.071068e-01
    outer loop
      vertex   5.000000e+01 -1.000000e+02 1.000000e+02
      vertex   -5.000000e+01 -5.000000e+01 5.000000e+01
      vertex   5.000000e+01 -5.000000e+01 5.000000e+01
    endloop
  endfacet
  facet normal -1.000000e+00 0.000000e+00 0.000000e+00
    outer loop
      vertex   -1.000000e+02 -5.000000e+01 1.000000e+02
      vertex   -1.000000e+02 -5.000000e+01 2.000000e+02
      vertex   -1.000000e+02 5.000000e+01 1.000000e+02
    endloop
  endfacet
  facet normal -1.000000e+00 0.000000e+00 0.000000e+00
    outer loop
      vertex   -1.000000e+02 5.000000e+01 1.000000e+02
      vertex   -1.000000e+02 -5.000000e+01 2.000000e+02
      vertex   -1.000000e+02 5.000000e+01 2.000000e+02
    endloop
  endfacet
  facet normal -7.071068e-01 0.000000e+00 7.071068e-01
    outer loop
      vertex   -1.000000e+02 -5.000000e+01 2.000000e+02
      vertex   -5.000000e+01 -5.000000e+01 2.500000e+02
      vertex   -1.000000e+02 5.000000e+01 2.000000e+02
    endloop
  endfacet
  facet normal -7.071068e-01 0.000000e+00 7.071068e-01
    outer loop
      vertex   -1.000000e+02 5.000000e+01 2.000000e+02
      vertex   -5.000000e+01 -5.000000e+01 2.500000e+02
      vertex   -5.000000e+01 5.000000e+01 2.500000e+02
    endloop
  endfacet
  facet normal -7.071068e-01 0.000000e+00 -7.071068e-01
    outer loop
      vertex   -5.000000e+01 -5.000000e+01 5.000000e+01
      vertex   -1.000000e+02 -5.000000e+01 1.000000e+02
      vertex   -5.000000e+01 5.000000e+01 5.000000e+01
    endloop
  endfacet
  facet normal -7.071068e-01 0.000000e+00 -7.071068e-01
    outer loop
      vertex   -5.000000e+01 5.000000e+01 5.000000e+01
      vertex   -1.000000e+02 -5.000000e+01 1.000000e+02
      vertex   -1.000000e+02 5.000000e+01 1.000000e+02
    endloop
  endfacet
  facet normal -5.024296e-17 -7.071068e-01 7.071068e-01
    outer loop
      vertex   -5.000000e+01 -5.000000e+01 2.500000e+02
      vertex   -5.000000e+01 -1.000000e+02 2.000000e+02
      vertex   5.000000e+01 -5.000000e+01 2.500000e+02
    endloop
  endfacet
  facet normal -1.286220e-16 -7.071068e-01 7.071068e-01
    outer loop
      vertex   5.000000e+01 -5.000000e+01 2.500000e+02
      vertex   -5.000000e+01 -1.000000e+02 2.000000e+02
      vertex   5.000000e+01 -1.000000e+02 2.000000e+02
    endloop
  endfacet
  facet normal -5.773503e-01 -5.773503e-01 5.773503e-01
    outer loop
      vertex   -1.000000e+02 -5.000000e+01 2.000000e+02
      vertex   -5.000000e+01 -1.000000e+02 2.000000e+02
      vertex   -5.000000e+01 -5.000000e+01 2.500000e+02
    endloop
  endfacet
  facet normal 5.773503e-01 5.773503e-01 -5.773503e-01
    outer loop
      vertex   5.000000e+01 5.000000e+01 5.000000e+01
      vertex   5.000000e+01 1.000000e+02 1.000000e+02
      vertex   1.000000e+02 5.000000e+01 1.000000e+02
    endloop
  endfacet
  facet normal 7.071068e-01 7.071068e-01 -0.000000e+00
    outer loop
      vertex   5.000000e+01 1.000000e+02 1.000000e+02
      vertex   5.000000e+01 1.000000e+02 2.000000e+02
      vertex   1.000000e+02 5.000000e+01 1.000000e+02
    endloop
  endfacet
  facet normal 7.071068e-01 7.071068e-01 -0.000000e+00
    outer loop
      vertex   1.000000e+02 5.000000e+01 1.000000e+02
      vertex   5.000000e+01 1.000000e+02 2.000000e+02
      vertex   1.000000e+02 5.000000e+01 2.000000e+02
    endloop
  endfacet
  facet normal 0.000000e+00 0.000000e+00 -1.000000e+00
    outer loop
      vertex   -5.000000e+01 -5.000000e+01 5.000000e+01
      vertex   -5.000000e+01 5.000000e+01 5.000000e+01
      vertex   5.000000e+01 -5.000000e+01 5.000000e+01
    endloop
  endfacet
  facet normal 0.000000e+00 0.000000e+00 -1.000000e+00
    outer loop
      vertex   5.000000e+01 -5.000000e+01 5.000000e+01
      vertex   -5.000000e+01 5.000000e+01 5.000000e+01
      vertex   5.000000e+01 5.000000e+01 5.000000e+01
    endloop
  endfacet
  facet normal 0.000000e+00 -0.000000e+00 1.000000e+00
    outer loop
      vertex   5.000000e+01 -5.000000e+01 2.500000e+02
      vertex   5.000000e+01 5.000000e+01 2.500000e+02
      vertex   -5.000000e+01 -5.000000e+01 2.500000e+02
    endloop
  endfacet
  facet normal 0.000000e+00 0.000000e+00 1.000000e+00
    outer loop
      vertex   -5.000000e+01 -5.000000e+01 2.500000e+02
      vertex   5.000000e+01 5.000000e+01 2.500000e+02
      vertex   -5.000000e+01 5.000000e+01 2.500000e+02
    endloop
  endfacet
  facet normal 0.000000e+00 1.000000e+00 0.000000e+00
    outer loop
      vertex   5.000000e+01 1.000000e+02 2.000000e+02
      vertex   5.000000e+01 1.000000e+02 1.000000e+02
      vertex   -5.000000e+01 1.000000e+02 2.000000e+02
    endloop
  endfacet
  facet normal 0.000000e+00 1.000000e+00 0.000000e+00
    outer loop
      vertex   -5.000000e+01 1.000000e+02 2.000000e+02
      vertex   5.000000e+01 1.000000e+02 1.000000e+02
      vertex   -5.000000e+01 1.000000e+02 1.000000e+02
    endloop
  endfacet
  facet normal 0.000000e+00 7.071068e-01 -7.071068e-01
    outer loop
      vertex   5.000000e+01 1.000000e+02 1.000000e+02
      vertex   5.000000e+01 5.000000e+01 5.000000e+01
      vertex   -5.000000e+01 1.000000e+02 1.000000e+02
    endloop
  endfacet
  facet normal -6.431099e-17 7.071068e-01 -7.071068e-01
    outer loop
      vertex   -5.000000e+01 1.000000e+02 1.000000e+02
      vertex   5.000000e+01 5.000000e+01 5.000000e+01
      vertex   -5.000000e+01 5.000000e+01 5.000000e+01
    endloop
  endfacet
  facet normal 1.000000e+00 -1.421085e-16 0.000000e+00
    outer loop
      vertex   1.000000e+02 5.000000e+01 1.000000e+02
      vertex   1.000000e+02 5.000000e+01 2.000000e+02
      vertex   1.000000e+02 -5.000000e+01 1.000000e+02
    endloop
  endfacet
  facet normal 1.000000e+00 -1.421085e-16 0.000000e+00
    outer loop
      vertex   1.000000e+02 -5.000000e+01 1.000000e+02
      vertex   1.000000e+02 5.000000e+01 2.000000e+02
      vertex   1.000000e+02 -5.000000e+01 2.000000e+02
    endloop
  endfacet
  facet normal 7.071068e-01 -1.004859e-16 7.071068e-01
    outer loop
      vertex   1.000000e+02 5.000000e+01 2.000000e+02
      vertex   5.000000e+01 5.000000e+01 2.500000e+02
      vertex   1.000000e+02 -5.000000e+01 2.000000e+02
    endloop
  endfacet
  facet normal 7.071068e-01 0.000000e+00 7.071068e-01
    outer loop
      vertex   1.000000e+02 -5.000000e+01 2.000000e+02
      vertex   5.000000e+01 5.000000e+01 2.500000e+02
      vertex   5.000000e+01 -5.000000e+01 2.500000e+02
    endloop
  endfacet
  facet normal 7.071068e-01 0.000000e+00 -7.071068e-01
    outer loop
      vertex   5.000000e+01 5.000000e+01 5.000000e+01
      vertex   1.000000e+02 5.000000e+01 1.000000e+02
      vertex   5.000000e+01 -5.000000e+01 5.000000e+01
    endloop
  endfacet
  facet normal 7.071068e-01 -1.286220e-16 -7.071068e-01
    outer loop
      vertex   5.000000e+01 -5.000000e+01 5.000000e+01
      vertex   1.000000e+02 5.000000e+01 1.000000e+02
      vertex   1.000000e+02 -5.000000e+01 1.000000e+02
    endloop
  endfacet
  facet normal -5.024296e-17 7.071068e-01 7.071068e-01
    outer loop
      vertex   5.000000e+01 5.000000e+01 2.500000e+02
      vertex   5.000000e+01 1.000000e+02 2.000000e+02
      vertex   -5.000000e+01 5.000000e+01 2.500000e+02
    endloop
  endfacet
  facet normal 0.000000e+00 7.071068e-01 7.071068e-01
    outer loop
      vertex   -5.000000e+01 5.000000e+01 2.500000e+02
      vertex   5.000000e+01 1.000000e+02 2.000000e+02
      vertex   -5.000000e+01 1.000000e+02 2.000000e+02
    endloop
  endfacet
  facet normal 5.773503e-01 5.773503e-01 5.773503e-01
    outer loop
      vertex   1.000000e+02 5.000000e+01 2.000000e+02
      vertex   5.000000e+01 1.000000e+02 2.000000e+02
      vertex   5.000000e+01 5.000000e+01 2.500000e+02
    endloop
  endfacet
endsolid
